HIERARCHY
ROOT Hips
{
 OFFSET 0.000000 0.000000 0.000000
 CHANNELS 6 Xposition Yposition Zposition Yrotation Xrotation Zrotation
 JOINT Chest
 {
  OFFSET 0.000000 9.585900 0.002600
  CHANNELS 3 Yrotation Xrotation Zrotation
  JOINT Chest2
  {
   OFFSET 0.000000 9.601200 -0.005300
   CHANNELS 3 Yrotation Xrotation Zrotation
   JOINT Chest3
   {
    OFFSET 0.000000 9.561800 0.000000
    CHANNELS 3 Yrotation Xrotation Zrotation
    JOINT Chest4
    {
     OFFSET 0.000000 9.552100 0.000000
     CHANNELS 3 Yrotation Xrotation Zrotation
     JOINT Neck
     {
      OFFSET 0.000000 14.453000 0.000000
      CHANNELS 3 Yrotation Xrotation Zrotation
      JOINT Head
      {
       OFFSET 0.000000 8.936500 -0.011300
       CHANNELS 3 Yrotation Xrotation Zrotation
       End Site
       {
        OFFSET 0.000000 17.073600 -0.006000
       }
      }
     }
     JOINT RightCollar
     {
      OFFSET -2.921100 9.558500 0.000000
      CHANNELS 3 Yrotation Xrotation Zrotation
      JOINT RightShoulder
      {
       OFFSET -13.519700 0.000000 0.000000
       CHANNELS 3 Yrotation Xrotation Zrotation
       JOINT RightElbow
       {
        OFFSET 0.000000 -29.696600 0.000000
        CHANNELS 3 Yrotation Xrotation Zrotation
        JOINT RightWrist
        {
         OFFSET 0.000000 -24.004700 0.000000
         CHANNELS 3 Yrotation Xrotation Zrotation
         End Site
         {
          OFFSET 0.000000 -17.728500 0.000000
         }
        }
       }
      }
     }
     JOINT LeftCollar
     {
      OFFSET 2.921100 9.558500 0.000000
      CHANNELS 3 Yrotation Xrotation Zrotation
      JOINT LeftShoulder
      {
       OFFSET 13.519700 0.000000 0.000000
       CHANNELS 3 Yrotation Xrotation Zrotation
       JOINT LeftElbow
       {
        OFFSET 0.000000 -29.696600 0.000000
        CHANNELS 3 Yrotation Xrotation Zrotation
        JOINT LeftWrist
        {
         OFFSET 0.000000 -24.004700 0.000000
         CHANNELS 3 Yrotation Xrotation Zrotation
         End Site
         {
          OFFSET 0.000000 -17.728500 0.000000
         }
        }
       }
      }
     }
    }
   }
  }
 }
 JOINT RightHip
 {
  OFFSET -7.771700 -0.012900 -0.001300
  CHANNELS 3 Yrotation Xrotation Zrotation
  JOINT RightKnee
  {
   OFFSET 0.000000 -40.869800 0.001200
   CHANNELS 3 Yrotation Xrotation Zrotation
   JOINT RightAnkle
   {
    OFFSET 0.000000 -39.717900 0.002100
    CHANNELS 3 Yrotation Xrotation Zrotation
    JOINT RightToe
    {
     OFFSET 0.000000 -4.965400 11.033500
     CHANNELS 3 Yrotation Xrotation Zrotation
     End Site
     {
      OFFSET 0.000000 -1.423100 5.872300
     }
    }
   }
  }
 }
 JOINT LeftHip
 {
  OFFSET 7.771700 -0.012900 -0.001300
  CHANNELS 3 Yrotation Xrotation Zrotation
  JOINT LeftKnee
  {
   OFFSET 0.000000 -40.869800 0.001200
   CHANNELS 3 Yrotation Xrotation Zrotation
   JOINT LeftAnkle
   {
    OFFSET 0.000000 -39.717900 0.002100
    CHANNELS 3 Yrotation Xrotation Zrotation
    JOINT LeftToe
    {
     OFFSET 0.000000 -4.965400 11.033500
     CHANNELS 3 Yrotation Xrotation Zrotation
     End Site
     {
      OFFSET 0.000000 -1.423100 5.872300
     }
    }
   }
  }
 }
}
MOTION
Frames: 15
Frame Time: 0.008333
-2.019735 48.841948 37.629932 172.559777 -35.930570 -6.424554 6.078341 20.326894 5.437350 0.692926 2.758099 0.609587 1.140246 4.502093 1.027990 5.027491 17.312612 4.553193 -1.806095 17.079034 2.056350 -4.039068 -3.975593 4.416285 -0.389467 -1.762976 -4.371084 5.492598 -7.553919 1.358043 64.700683 -78.446120 -79.196604 -2.735522 -7.846378 7.181557 -9.251777 -1.415433 -0.511145 0.183769 -6.130347 -1.575310 -108.761381 -70.196971 110.797683 16.808728 -8.382197 4.490379 6.893748 -48.943372 7.830315 -74.214548 81.177428 -62.119639 -1.369427 -2.674001 -2.365034 0.021958 -0.969273 -0.063889 -11.586515 -49.144441 15.021650 -159.237258 83.990004 -165.836053 1.861733 -12.958742 5.665513 0.004026 0.041457 0.004353
-2.019302 48.851294 37.644562 172.521360 -35.946208 -6.409522 6.102181 20.334761 5.453268 0.695347 2.764993 0.611615 1.144238 4.507467 1.023516 5.032656 17.320268 4.556627 -1.797749 17.089911 2.047924 -4.025837 -3.982870 4.378092 -0.384933 -1.728504 -4.348258 5.461246 -7.589232 1.384591 64.846063 -78.398753 -79.421271 -2.721037 -7.864531 7.260029 -9.260376 -1.409774 -0.506868 0.169393 -6.148541 -1.562565 -108.714434 -70.228044 110.768527 16.808783 -8.500169 4.544973 6.851680 -48.777399 7.894654 -75.235571 81.308815 -63.121222 -1.364895 -2.787634 -2.328896 0.036475 -0.981807 -0.110440 -11.516786 -49.124563 15.004084 -159.251962 84.018159 -165.828188 1.844672 -12.952663 5.669995 0.008460 0.038033 0.003619
-2.020478 48.859113 37.659371 172.490210 -35.950944 -6.391116 6.109914 20.340233 5.461158 0.697730 2.771233 0.613019 1.152475 4.508313 1.016488 5.037755 17.327496 4.559402 -1.790355 17.099424 2.038497 -4.010826 -3.988948 4.340033 -0.384236 -1.731025 -4.350996 5.437615 -7.594281 1.413913 64.908641 -78.398554 -79.568293 -2.691614 -7.881838 7.303150 -9.265063 -1.415575 -0.509872 0.144355 -6.152660 -1.546553 -108.628515 -70.209723 110.725894 16.814428 -8.600337 4.559488 6.796631 -48.624279 7.950644 -76.214740 81.427526 -64.089793 -1.321902 -2.860126 -2.291493 0.044129 -1.009514 -0.152288 -11.445830 -49.115580 14.978717 -159.287517 84.049751 -165.845972 1.827580 -12.954653 5.677729 0.005014 0.043387 0.003977
-2.022801 48.865557 37.673497 172.475016 -35.949173 -6.377707 6.102337 20.348629 5.461178 0.686011 2.789221 0.628211 1.158567 4.519850 1.019723 5.055846 17.343836 4.568625 -1.793806 17.071343 1.996045 -3.996083 -3.993555 4.301066 -0.384335 -1.769733 -4.385020 5.428100 -7.604279 1.415032 64.882182 -78.447594 -79.635483 -2.711819 -7.876152 7.294493 -9.271260 -1.462259 -0.538465 0.085007 -6.120456 -1.507281 -108.528896 -70.094768 110.739102 16.902026 -8.664517 4.514527 6.726719 -48.478537 7.999619 -77.158917 81.528403 -65.024669 -1.253373 -2.895710 -2.252088 0.045211 -1.047470 -0.192065 -11.406262 -49.113450 14.960259 -159.391492 84.080486 -165.942914 1.809741 -12.950521 5.680242 -0.006252 0.044722 0.005535
-2.026202 48.870431 37.686417 172.436117 -35.947004 -6.346787 6.113592 20.357393 5.459164 0.689345 2.788669 0.628963 1.161229 4.526364 1.021919 5.063278 17.353421 4.574651 -1.790229 17.070253 1.975147 -3.982444 -3.996823 4.261212 -0.374151 -1.745323 -4.373055 5.376836 -7.636461 1.431483 65.014765 -78.491067 -79.820237 -2.731087 -7.843946 7.309736 -9.286264 -1.463794 -0.537980 0.090069 -6.134991 -1.516435 -108.487179 -70.034031 110.730568 16.890191 -8.685367 4.443751 6.685066 -48.339189 8.037859 -78.050634 81.610486 -65.898118 -1.183527 -2.907060 -2.209100 0.045592 -1.082011 -0.232579 -11.344276 -49.112670 14.941325 -159.418693 84.105971 -165.964018 1.777590 -12.950761 5.682413 0.000484 0.048569 0.011355
-2.033429 48.875218 37.694366 172.382755 -35.966168 -6.284618 6.118544 20.387726 5.442304 0.704426 2.787346 0.617942 1.163109 4.533173 1.024275 5.067660 17.363955 4.581053 -1.786465 17.070852 1.954397 -3.979463 -4.010618 4.240486 -0.375558 -1.733367 -4.367263 5.295086 -7.633610 1.516487 65.400071 -78.511997 -80.209696 -2.743366 -7.805245 7.342606 -9.294519 -1.463906 -0.533837 0.096163 -6.147806 -1.530617 -108.483172 -69.995343 110.752040 16.857936 -8.665311 4.337785 6.688782 -48.178327 8.039511 -78.858020 81.678397 -66.672352 -1.145135 -2.879978 -2.169728 0.067262 -1.132909 -0.267526 -11.227258 -49.094426 14.874107 -159.438427 84.131230 -165.981279 1.755033 -12.948427 5.693079 0.001448 0.047307 0.016771
-2.036932 48.877008 37.703361 172.355489 -35.969821 -6.264466 6.129425 20.393100 5.443973 0.705086 2.790396 0.618961 1.164133 4.537928 1.025886 5.067907 17.376108 4.592339 -1.783792 17.067675 1.931576 -3.973955 -4.016744 4.220428 -0.377728 -1.725366 -4.364456 5.262174 -7.634370 1.540354 65.585118 -78.590825 -80.438577 -2.758551 -7.763479 7.376416 -9.294451 -1.460912 -0.529645 0.105788 -6.145241 -1.525578 -108.537703 -69.939786 110.844151 16.879478 -8.597520 4.192236 6.641369 -48.028516 8.076155 -79.530703 81.740165 -67.300033 -1.115086 -2.864438 -2.126413 0.083102 -1.154178 -0.308096 -11.184018 -49.089642 14.880650 -159.245989 84.140895 -165.806394 1.741255 -12.948543 5.710472 -0.002281 0.046164 0.022807
-2.042465 48.876980 37.709441 172.344518 -35.979536 -6.242380 6.130849 20.404696 5.430656 0.705292 2.791322 0.619270 1.164440 4.539383 1.026366 5.066753 17.383071 4.600523 -1.783120 17.063634 1.919017 -3.927826 -3.961113 4.140891 -0.379838 -1.715349 -4.354533 5.232350 -7.618912 1.567575 65.807102 -78.669951 -80.705695 -2.771275 -7.726702 7.402686 -9.295266 -1.441746 -0.517171 0.168976 -6.121534 -1.486876 -108.731434 -69.898949 111.048087 16.944248 -8.492720 4.016430 6.576315 -47.859317 8.104853 -80.027650 81.792681 -67.749607 -1.127871 -2.826899 -2.093380 0.124948 -1.181740 -0.339166 -11.168760 -49.080707 14.881110 -159.068282 84.145790 -165.657498 1.729384 -12.937649 5.724142 0.000919 0.033046 0.022806
-2.043417 48.874556 37.715502 172.343478 -35.984924 -6.255309 6.117997 20.416728 5.447554 0.706136 2.794506 0.621012 1.165670 4.544150 1.029357 5.073734 17.380403 4.596215 -1.776197 17.078588 1.910982 -3.903863 -3.953798 4.096976 -0.384784 -1.705807 -4.337570 5.213172 -7.599521 1.583665 66.050928 -78.733972 -80.995678 -2.778031 -7.702367 7.412744 -9.291112 -1.419782 -0.502148 0.218813 -6.123291 -1.473441 -108.890389 -69.921279 111.181414 16.954474 -8.393369 3.885014 6.442190 -47.684834 8.190901 -80.351698 81.825261 -68.034765 -1.136512 -2.803749 -2.047333 0.153284 -1.176496 -0.381380 -11.196094 -49.077539 14.933455 -158.819764 84.137330 -165.436204 1.725658 -12.931933 5.739023 0.004489 0.024224 0.021011
-2.042593 48.870102 37.720292 172.354940 -35.991563 -6.285777 6.110357 20.426784 5.478523 0.706150 2.796619 0.623050 1.165750 4.547353 1.032526 5.068810 17.397029 4.640946 -1.775418 17.072279 1.852555 -3.878950 -3.940274 4.055770 -0.385796 -1.708477 -4.362323 5.196682 -7.584528 1.591584 66.308411 -78.747016 -81.261249 -2.794430 -7.694779 7.391904 -9.290124 -1.415066 -0.513995 0.279163 -6.131161 -1.470487 -109.057430 -69.971683 111.317828 16.968638 -8.302817 3.787342 6.255282 -47.497359 8.303872 -80.501879 81.830357 -68.160767 -1.141489 -2.770302 -1.976238 0.173702 -1.158375 -0.438638 -11.243622 -49.072586 15.014680 -158.517227 84.119921 -165.173131 1.721928 -12.934030 5.761926 -0.001242 0.024619 0.027518
-2.038444 48.864514 37.723584 172.392609 -36.003088 -6.349525 6.099289 20.444358 5.534380 0.708210 2.803836 0.637018 1.161517 4.551591 1.044937 5.052180 17.389311 4.636052 -1.752610 17.102129 1.842510 -3.866493 -3.946246 4.002122 -0.386697 -1.702368 -4.376338 5.165704 -7.567014 1.616911 66.555524 -78.751625 -81.506707 -2.781247 -7.690563 7.405058 -9.288454 -1.414454 -0.530495 0.337462 -6.108160 -1.424442 -109.255068 -70.047258 111.476875 16.982291 -8.231665 3.728612 6.006119 -47.293877 8.442578 -80.497889 81.804917 -68.145251 -1.121275 -2.720155 -1.858586 0.172919 -1.128880 -0.523630 -11.327759 -49.064884 15.112529 -158.456042 84.100167 -165.133583 1.700495 -12.939342 5.767924 -0.002833 0.026771 0.037420
-2.028551 48.855579 37.730118 172.452309 -35.989818 -6.460821 6.084898 20.432122 5.629904 0.708462 2.812241 0.642816 1.156150 4.548435 1.044523 5.041465 17.384232 4.633237 -1.743896 17.110879 1.834658 -3.838523 -3.927314 3.960325 -0.386853 -1.700059 -4.386794 5.120225 -7.546351 1.655213 66.775393 -78.764005 -81.803250 -2.773908 -7.701850 7.445131 -9.298415 -1.391332 -0.488576 0.386565 -6.108217 -1.433014 -109.393382 -70.114698 111.592182 16.990685 -8.183469 3.710419 5.695278 -47.107383 8.614397 -80.389600 81.745944 -68.032093 -1.027225 -2.693535 -1.666485 0.102439 -1.050555 -0.656901 -11.473375 -49.086048 15.272818 -158.546370 84.072836 -165.234563 1.662971 -12.944564 5.765044 0.001838 0.020336 0.034176
-2.025391 48.844053 37.735624 172.505676 -35.968422 -6.523796 6.073199 20.445271 5.697232 0.692984 2.784987 0.622265 1.155328 4.549507 1.050964 5.033058 17.379285 4.634196 -1.743938 17.112211 1.821026 -3.812806 -3.910798 3.932182 -0.413755 -1.692940 -4.344060 5.103014 -7.529478 1.634231 66.994576 -78.748918 -82.039598 -2.755729 -7.755142 7.377491 -9.309346 -1.382998 -0.459215 0.418611 -6.094022 -1.429826 -109.505724 -70.171529 111.694781 16.994577 -8.158389 3.723877 5.435350 -46.913114 8.708026 -80.270372 81.638257 -67.910163 -0.918345 -2.723697 -1.497172 0.056418 -0.922918 -0.746744 -11.561461 -49.122884 15.353905 -158.884004 84.060035 -165.580791 1.615749 -12.947720 5.755207 -0.003365 0.021789 0.042017
-2.025976 48.831692 37.739657 172.541155 -35.949034 -6.547975 6.055280 20.451398 5.722758 0.687757 2.770149 0.610985 1.151214 4.544142 1.047361 5.024157 17.378968 4.660705 -1.733578 17.120043 1.799319 -3.815969 -3.916196 3.915015 -0.425913 -1.693422 -4.332316 5.089851 -7.511164 1.613270 67.146607 -78.737316 -82.170583 -2.739362 -7.798419 7.318522 -9.319488 -1.384206 -0.460392 0.439095 -6.075964 -1.415270 -109.599634 -70.212876 111.794091 16.995750 -8.151336 3.736238 5.206133 -46.697231 8.767880 -80.153607 81.485059 -67.798121 -0.751316 -2.967823 -1.478556 0.041132 -0.644666 -0.702560 -11.587951 -49.162132 15.378527 -159.187414 84.051043 -165.883534 1.564737 -12.950428 5.742050 0.000280 0.022994 0.052687
-2.026911 48.818376 37.744596 172.531355 -35.923433 -6.538658 6.066849 20.448822 5.741032 0.689987 2.788039 0.633737 1.139562 4.518463 1.024842 5.003409 17.371692 4.665267 -1.724147 17.124778 1.779781 -3.791788 -3.908932 3.875578 -0.422075 -1.696394 -4.327690 5.092432 -7.504717 1.582208 67.181034 -78.727722 -82.255747 -2.750196 -7.814039 7.357143 -9.324025 -1.391252 -0.467793 0.447454 -6.059869 -1.395437 -109.660193 -70.248114 111.874080 16.996488 -8.148858 3.752190 4.996807 -46.478554 8.843037 -79.850176 81.336783 -67.528301 -0.560056 -3.413994 -1.608033 0.024122 -0.253444 -0.545534 -11.561706 -49.210313 15.386228 -159.214621 84.035305 -165.902757 1.556649 -12.962037 5.687468 -0.011219 0.034675 0.113800
